<svg xmlns="http://www.w3.org/2000/svg" viewBox="0 0 100 100">
  <rect width="100" height="100" rx="22" fill="#14532d"/>
  <!-- Bird in flight: left wing -->
  <path d="M50 50 C42 38 26 34 15 37 C24 42 40 50 50 50 Z" fill="#4ade80"/>
  <!-- Bird in flight: right wing (slightly lighter) -->
  <path d="M50 50 C58 37 76 32 87 35 C76 42 62 50 50 50 Z" fill="#86efac"/>
  <!-- Body -->
  <ellipse cx="50" cy="50" rx="8" ry="4.5" fill="#bbf7d0"/>
  <!-- Head -->
  <circle cx="62" cy="47" r="6" fill="#4ade80"/>
  <!-- Eye -->
  <circle cx="64" cy="46" r="1.8" fill="#14532d"/>
  <!-- Beak -->
  <path d="M67 46 L75 44 L67 48 Z" fill="#fde68a"/>
  <!-- Tail -->
  <path d="M37 52 L25 57 L28 53 L26 58 L37 52 Z" fill="#86efac"/>
  <!-- Observation dot below (location/around-me) -->
  <circle cx="50" cy="76" r="12" fill="none" stroke="rgba(74,222,128,0.3)" stroke-width="2"/>
  <circle cx="50" cy="76" r="7" fill="none" stroke="rgba(74,222,128,0.45)" stroke-width="2"/>
  <circle cx="50" cy="76" r="3" fill="#4ade80"/>
</svg>
